<svg width="200" height="60" viewBox="0 0 200 60" fill="none" xmlns="http://www.w3.org/2000/svg">
  <!-- Background circle -->
  <circle cx="30" cy="30" r="28" fill="hsl(var(--primary))" stroke="hsl(var(--primary))" stroke-width="2"/>
  
  <!-- Shopping bag icon -->
  <g transform="translate(18, 14)">
    <path d="M6 6L18 6L20 22H10M20 22C19.4696 23.3333 18.3333 24.6667 16.5 24.6667C14.6667 24.6667 13.5304 23.3333 13 22M20 22L19 30C19 31.1046 18.1046 32 17 32H7C5.89543 32 5 31.1046 5 30L4 22" stroke="hsl(var(--primary-foreground))" stroke-width="2" stroke-linecap="round" stroke-linejoin="round" fill="none"/>
    <path d="M6 8V6C6 3.79086 7.79086 2 10 2H14C16.2091 2 18 3.79086 18 6V8" stroke="hsl(var(--primary-foreground))" stroke-width="2" stroke-linecap="round"/>
  </g>
  
  <!-- Text -->
  <text x="65" y="25" font-family="system-ui, -apple-system, sans-serif" font-size="18" font-weight="700" fill="hsl(var(--foreground))">UMass</text>
  <text x="65" y="42" font-family="system-ui, -apple-system, sans-serif" font-size="14" font-weight="500" fill="hsl(var(--muted-foreground))">Marketplace</text>
</svg>

